Coordinates
nRows=150
nColumns=2
inDegrees=yes
endheader
time	ankle_angle_r	
2.93448	 -5.191431	
3.00605	 -5.195290	
3.07762	 -5.107836	
3.14919	 -5.172729	
3.22077	 -5.161746	
3.29234	 -5.207730	
3.36391	 -5.152780	
3.43548	 -5.239226	
3.50706	 -5.213399	
3.57863	 -5.102436	
3.6502	 -5.151948	
3.72177	 -5.187988	
3.79335	 -5.175287	
3.86492	 -5.194135	
3.93649	 -5.114244	
4.00806	 -5.218506	
4.07964	 -5.225277	
4.15121	 -5.242044	
4.22278	 -5.209549	
4.29435	 -5.195383	
4.36593	 -5.210850	
4.4375	 -5.149660	
4.50907	 -5.210487	
4.58065	 -5.265478	
4.65222	 -5.279541	
4.72379	 -5.246996	
4.79536	 -5.268246	
4.86694	 -5.303859	
4.93851	 -5.245748	
5.01008	 -5.294800	
5.08165	 -5.239340	
5.15323	 -5.315426	
5.2248	 -5.254183	
5.29637	 -5.233765	
5.36794	 -5.290056	
5.43952	 -5.275005	
5.51109	 -5.268610	
5.58266	 -5.172729	
5.65423	 -5.249023	
5.72581	 -5.206951	
5.79738	 -5.065918	
5.86895	 -5.047372	
5.94052	 -5.056818	
6.0121	 -5.063046	
6.08367	 -5.002220	
6.15524	 -5.020142	
6.22681	 -5.081177	
6.29839	 -5.052698	
6.36996	 -5.020142	
6.44153	 -5.033777	
6.5131	 -5.126953	
6.58468	 -5.125746	
6.65625	 -5.065918	
6.72782	 -5.187988	
6.7994	 -5.249607	
6.87097	 -5.263907	
6.94254	 -5.233932	
7.01411	 -5.203247	
7.08569	 -5.279541	
7.15726	 -5.279541	
7.22883	 -5.264947	
7.3004	 -5.249023	
7.37198	 -5.323155	
7.44355	 -5.312637	
7.51512	 -5.249023	
7.58669	 -5.281246	
7.65827	 -5.275714	
7.72984	 -5.310059	
7.80141	 -5.246694	
7.87298	 -5.246486	
7.94456	 -5.307313	
8.01613	 -5.245578	
8.0877	 -5.270605	
8.15927	 -5.240503	
8.23085	 -5.321740	
8.30242	 -5.268068	
8.37399	 -5.245030	
8.44556	 -5.290598	
8.51714	 -5.192398	
8.58871	 -5.183371	
8.66028	 -5.132561	
8.73185	 -5.126953	
8.80343	 -5.106453	
8.875	 -4.990714	
8.94657	 -5.167072	
9.01815	 -5.163336	
9.08972	 -5.239838	
9.16129	 -5.157471	
9.23286	 -5.227275	
9.30444	 -5.288102	
9.37601	 -5.226859	
9.44758	 -5.249023	
9.51915	 -5.226443	
9.59073	 -5.294800	
9.6623	 -5.325100	
9.73387	 -5.225819	
9.80544	 -5.240870	
9.87702	 -5.164368	
9.94859	 -5.264282	
10.0202	 -5.142212	
10.0917	 -5.163743	
10.1633	 -5.133018	
10.2349	 -5.142212	
10.3065	 -5.126953	
10.378	 -5.025582	
10.4496	 -5.101668	
10.5212	 -5.076152	
10.5927	 -5.035400	
10.6643	 -5.055268	
10.7359	 -5.131354	
10.8075	 -5.126953	
10.879	 -5.111694	
10.9506	 -5.168800	
11.0222	 -5.241886	
11.0937	 -5.093075	
11.1653	 -5.142212	
11.2369	 -5.114639	
11.3085	 -5.297536	
11.38	 -5.289743	
11.4516	 -5.246703	
11.5232	 -5.296912	
11.5948	 -5.277637	
11.6663	 -5.294800	
11.7379	 -5.233765	
11.8095	 -5.282102	
11.881	 -5.340576	
11.9526	 -5.249888	
12.0242	 -5.279541	
12.0958	 -5.264730	
12.1673	 -5.280022	
12.2389	 -5.264250	
12.3105	 -5.233941	
12.3821	 -5.294032	
12.4536	 -5.143988	
12.5252	 -5.249023	
12.5968	 -5.232757	
12.6683	 -5.249023	
12.7399	 -5.187988	
12.8115	 -5.175993	
12.8831	 -5.216666	
12.9546	 -5.157471	
13.0262	 -5.131465	
13.0978	 -5.157471	
13.1694	 -5.157471	
13.2409	 -5.243263	
13.3125	 -5.187988	
13.3841	 -5.206543	
13.4556	 -5.206751	
13.5272	 -5.241599	
13.5988	 -5.119534	
